<?xml version="1.0" standalone="no"?><!-- Generator: Gravit.io -->
<svg xmlns="http://www.w3.org/2000/svg" xmlns:xlink="http://www.w3.org/1999/xlink" style="isolation:isolate" viewBox="438.038 328.131 155.924 141.737" width="155.924" height="141.737" id="close">
    <defs>
        <style>
            @import url(../svg-anim.css)
        </style>
    </defs>

    <path class="close" d=" M 589.892 409.752 L 576.075 433.684 L 562.258 457.616 C 558.832 463.551 550.487 468.369 543.634 468.369 L 516 468.369 L 488.366 468.369 C 481.513 468.369 473.168 463.551 469.742 457.616 L 455.925 433.684 L 442.108 409.752 C 438.682 403.818 438.682 394.182 442.108 388.248 L 455.925 364.316 L 469.742 340.384 C 473.168 334.449 481.513 329.631 488.366 329.631 L 516 329.631 L 543.634 329.631 C 550.487 329.631 558.832 334.449 562.258 340.384 L 576.075 364.316 L 589.892 388.248 C 593.318 394.182 593.318 403.818 589.892 409.752 Z " id="polygon"/>
    <path class="close-symb" d=" M 516 394.184 L 479.317 357.501 L 474.501 362.317 L 511.184 399 L 474.501 435.683 L 479.317 440.499 L 516 403.816 L 552.683 440.499 L 557.499 435.683 L 520.816 399 L 557.499 362.317 L 552.683 357.501 L 516 394.184 Z " fill-rule="evenodd" id="X" fill="rgb(38,38,38)"/>
</svg>