<?xml version="1.0" standalone="no"?><!-- Generator: Gravit.io -->
<svg xmlns="http://www.w3.org/2000/svg" xmlns:xlink="http://www.w3.org/1999/xlink" style="isolation:isolate" viewBox="0 0 102.865 102.944" width="100%" height="100%" id="collapse">
    <defs>
        <style>
            @import url(../css/svg-anim.css)
        </style>

        <script type="text/javascript">
            document.getElementById("collapse").addEventListener("mousedown", function() {
                this.classList.toggle("click");
            });
            document.getElementById("collapse").addEventListener("mouseup", function() {
                this.classList.toggle("click");
                window.parent.postMessage("collapsewindow","*");
            });
        </script>
    </defs>

    <path class="poly" id="coll-path" d=" M 102.865 0 L 92.173 0 C 87.758 0 82.381 3.104 80.173 6.928 L 69.314 25.736 L 58.456 44.544 C 56.248 48.368 56.248 54.576 58.456 58.4 L 69.314 77.208 L 80.173 96.016 C 82.381 99.84 87.758 102.944 92.173 102.944 L 102.865 102.944 C 98.45 102.944 93.622 99.582 92.091 95.44 L 85.352 77.208 L 78.613 58.976 C 77.082 54.834 77.082 48.11 78.613 43.968 L 85.352 25.736 L 92.091 7.504 C 93.622 3.362 98.45 0 102.865 0 L 102.865 0 Z " />
    <path class="poly" id="coll-path" d=" M 0 102.944 L 10.692 102.944 C 15.107 102.944 20.484 99.84 22.692 96.016 L 33.55 77.208 L 44.409 58.4 C 46.617 54.576 46.617 48.368 44.409 44.544 L 33.55 25.736 L 22.692 6.928 C 20.484 3.104 15.107 0 10.692 0 L 0 0 C 4.415 0 9.243 3.362 10.774 7.504 L 17.513 25.736 L 24.252 43.968 C 25.783 48.11 25.783 54.834 24.252 58.976 L 17.513 77.208 L 10.774 95.44 C 9.243 99.582 4.415 102.944 0 102.944 L 0 102.944 Z " />
</svg>