<?xml version="1.0" standalone="no"?><!-- Generator: Gravit.io -->
<svg xmlns="http://www.w3.org/2000/svg" xmlns:xlink="http://www.w3.org/1999/xlink" style="isolation:isolate" viewBox="0 0 114.181 102.944" width="100%" height="100%" id="expand">
    <defs>
        <style>
            @import url(../css/svg-anim.css)
        </style>

        <script type="text/javascript">
            document.getElementById("expand").addEventListener("mousedown", function() {
                this.classList.toggle("click");
            });
            document.getElementById("expand").addEventListener("mouseup", function() {
                this.classList.toggle("click");
                window.parent.postMessage("expandwindow","*");
            });
        </script>
    </defs>

    <path id="exp-path" class="poly" d=" M 107.179 67.66 L 112.525 58.4 C 114.733 54.576 114.733 48.368 112.525 44.544 L 101.667 25.736 L 90.808 6.928 C 88.6 3.104 83.223 0 78.808 0 L 57.091 0 L 35.373 0 C 30.958 0 25.581 3.104 23.373 6.928 L 18.027 16.187 L 12.514 25.736 L 7.002 35.285 L 1.656 44.544 C -0.552 48.368 -0.552 54.576 1.656 58.4 L 12.514 77.208 L 23.373 96.016 C 25.581 99.84 30.958 102.944 35.373 102.944 L 57.091 102.944 L 78.808 102.944 C 83.223 102.944 88.6 99.84 90.808 96.016 L 96.154 86.757 C 93.946 90.58 88.62 93.08 84.268 92.335 L 65.109 89.055 L 45.95 85.775 C 41.598 85.03 35.774 81.668 32.953 78.272 L 20.533 63.319 L 8.113 48.367 C 5.292 44.97 4.794 39.108 7.002 35.285 C 7.002 35.285 7.002 35.285 7.002 35.285 L 12.514 25.736 L 18.027 16.187 C 18.027 16.187 18.027 16.187 18.027 16.187 C 20.235 12.364 25.561 9.864 29.913 10.609 L 49.072 13.889 L 68.231 17.169 C 72.583 17.914 78.407 21.276 81.228 24.672 L 93.648 39.625 L 106.068 54.577 C 108.889 57.974 109.387 63.836 107.179 67.66 Z "/>
</svg>