<?xml version="1.0" standalone="no"?><!-- Generator: Gravit.io -->
<svg xmlns="http://www.w3.org/2000/svg" xmlns:xlink="http://www.w3.org/1999/xlink" style="isolation:isolate" viewBox="773.115 328.131 155.924 141.737" width="155.924" height="141.737" id="expand">
    <defs>
        <style>
            @import url(../svg-anim.css)
        </style>
    </defs>

    <path class="expand" id="polygon" d=" M 924.969 409.752 L 911.151 433.684 L 897.334 457.616 C 893.908 463.551 885.563 468.369 878.711 468.369 L 851.076 468.369 L 823.442 468.369 C 816.59 468.369 808.245 463.551 804.819 457.616 L 791.001 433.684 L 777.184 409.752 C 773.758 403.818 773.758 394.182 777.184 388.248 L 791.001 364.316 L 804.819 340.384 C 808.245 334.449 816.59 329.631 823.442 329.631 L 851.076 329.631 L 878.711 329.631 C 885.563 329.631 893.908 334.449 897.334 340.384 L 911.151 364.316 L 924.969 388.248 C 928.395 394.182 928.395 403.818 924.969 409.752 Z "/>
    <path class="expand-symb" d=" M 901.165 415.187 L 906.511 405.928 C 908.719 402.104 908.719 395.896 906.511 392.072 L 895.652 373.264 L 884.794 354.456 C 882.586 350.632 877.209 347.528 872.794 347.528 L 851.076 347.528 L 829.359 347.528 C 824.944 347.528 819.567 350.632 817.359 354.456 L 812.013 363.715 L 806.5 373.264 L 800.987 382.813 L 795.642 392.072 C 793.434 395.896 793.434 402.104 795.642 405.928 L 806.5 424.736 L 817.359 443.544 C 819.567 447.368 824.944 450.472 829.359 450.472 L 851.076 450.472 L 872.794 450.472 C 877.209 450.472 882.586 447.368 884.794 443.544 L 890.14 434.285 C 887.932 438.108 882.606 440.608 878.254 439.863 L 859.095 436.583 L 839.936 433.303 C 835.584 432.558 829.76 429.196 826.939 425.8 L 814.519 410.847 L 802.099 395.895 C 799.278 392.498 798.78 386.636 800.987 382.813 C 800.987 382.813 800.987 382.813 800.987 382.813 L 806.5 373.264 L 812.013 363.715 C 812.013 363.715 812.013 363.715 812.013 363.715 C 814.221 359.892 819.546 357.392 823.898 358.137 L 843.058 361.417 L 862.217 364.697 C 866.569 365.442 872.393 368.804 875.214 372.2 L 887.634 387.153 L 900.054 402.105 C 902.875 405.502 903.373 411.364 901.165 415.187 Z " fill-rule="evenodd" fill="rgb(38,38,38)"/>
</svg>