<?xml version="1.0" standalone="no"?><!-- Generator: Gravit.io -->
<svg xmlns="http://www.w3.org/2000/svg" xmlns:xlink="http://www.w3.org/1999/xlink" style="isolation:isolate" viewBox="0 0 229 137" width="229" height="137">
    <path class="mask" d=" M 0 0 L 229 0 L 229 137 L 0 137 L 0 0 Z  M 114.5 112.5 Q 102.599 127.11 79.5 126.5 C 89.04 126.079 89.92 111.209 65.5 109.5 C 64.323 100.446 53.521 102.004 44.5 90.5 C 58.454 98.991 71.23 88.293 71.5 84.5 Q 68.945 75.102 59.5 67.5 C 70.711 65.806 65.209 59.427 66.5 54.5 C 67.791 49.573 64.055 46.137 59.5 37.5 C 64.561 44.849 78.907 50.643 81.5 47.5 C 84.885 52.574 92.058 53.862 96.5 56.5 C 98.805 56.032 99.085 55.228 99.5 54.5 C 99.749 53.13 98.541 35.16 100.5 31.5 C 103.906 35.907 116.707 18.524 115.5 9.5 C 119.283 9.557 111.861 17.995 126.5 30.5 C 127.233 30.214 128.408 29.718 129.5 29.5 C 128.468 32.854 131.786 55.555 134.5 54.5 C 137.214 53.445 164.587 45.583 169.5 37.5 C 162.87 48.126 156.585 68.413 167.5 63.5 C 159.648 74.499 144.055 89.296 169.5 92.5 C 177.526 94.412 177.694 91.891 184.5 90.5 C 180.412 93.513 156.852 108.407 166.5 109.5 C 157.993 112.349 139.789 111.94 149.5 127.5 Q 127.046 120.64 114.5 112.5 Z " fill-rule="evenodd" fill="rgb(150,44,45)"/>
</svg>