<?xml version="1.0" standalone="no"?><!-- Generator: Gravit.io -->
<svg xmlns="http://www.w3.org/2000/svg" xmlns:xlink="http://www.w3.org/1999/xlink" style="isolation:isolate" viewBox="0 -34 229 171" width="100%" height="100%">
    <defs>
        <filter id="P41FgFl0JeO0H074KvhlX5ySbJnv6MTD" x="-200%" y="-200%" width="400%" height="400%" filterUnits="objectBoundingBox" color-interpolation-filters="sRGB">
            <feGaussianBlur xmlns="http://www.w3.org/2000/svg" in="SourceGraphic" stdDeviation="2.146804531419514"/>
            <feOffset xmlns="http://www.w3.org/2000/svg" dx="0" dy="0" result="pf_100_offsetBlur"/>
            <feFlood xmlns="http://www.w3.org/2000/svg" flood-color="#121212" flood-opacity="0.74"/>
            <feComposite xmlns="http://www.w3.org/2000/svg" in2="pf_100_offsetBlur" operator="in" result="pf_100_dropShadow"/>
            <feBlend xmlns="http://www.w3.org/2000/svg" in="SourceGraphic" in2="pf_100_dropShadow" mode="normal"/>
        </filter>
    </defs>
    <g filter="url(#P41FgFl0JeO0H074KvhlX5ySbJnv6MTD)">
    <path id="tab" d=" M 164 0 L 229 65 L 229 43 L 186 0 L 164 0 Z " fill="rgb(181,71,46)"/>
    </g>
    <!-- <g transform="matrix(0.119,0.119,-0.119,0.119,197.584,16.712)">
        <text id="version" transform="matrix(1,0,0,1,0,46.078)" style="font-family:'Nova Flat';font-weight:400;font-size:48px;font-style:normal;fill:#f98a71;stroke:none;-webkit-user-select:none;">v. 12.20.18</text>
    </g> -->
    <g><path id="leaf" d=" M 182.571 14.429 Q 180.521 14.639 178.783 12.806 C 179.553 13.511 180.77 12.43 179.015 10.41 C 179.624 9.619 178.668 8.904 178.86 7.318 C 179.282 9.053 181.097 9.213 181.411 8.941 Q 181.94 8.017 181.798 6.699 C 182.795 7.435 182.863 6.516 183.344 6.235 C 183.824 5.954 183.801 5.4 184.117 4.38 C 183.94 5.34 184.601 6.896 185.044 6.854 C 184.914 7.508 185.369 8.162 185.508 8.709 C 185.722 8.851 185.806 8.811 185.895 8.786 C 186.02 8.7 187.315 7.217 187.75 7.086 C 187.672 7.69 190.006 7.336 190.61 6.545 C 190.898 6.841 189.672 6.92 189.837 9.018 C 189.916 9.053 190.045 9.105 190.146 9.173 C 189.807 9.352 188.309 11.364 188.6 11.492 C 188.891 11.62 191.615 13.128 192.62 12.883 C 191.286 13.192 189.232 14.275 190.455 14.739 C 188.998 14.982 186.649 14.92 188.368 17.135 C 188.841 17.903 189.049 17.721 189.682 18.14 C 189.133 18.057 186.161 17.387 186.822 18.217 C 185.944 17.78 184.569 16.341 184.117 18.294 Q 182.911 16.028 182.571 14.429 Z " fill="rgb(249,138,113)"/></g>
</svg>